<?xml version="1.0" encoding="utf-8"?>
<!-- Generator: Adobe Illustrator 26.0.1, SVG Export Plug-In . SVG Version: 6.00 Build 0)  -->
<svg version="1.1" id="Layer_1" xmlns="http://www.w3.org/2000/svg" xmlns:xlink="http://www.w3.org/1999/xlink" x="0px" y="0px"
	 viewBox="0 0 1080 1080" style="enable-background:new 0 0 1080 1080;" xml:space="preserve">
<style type="text/css">
	.st0{fill:#88EED2;}
	.st1{fill-rule:evenodd;clip-rule:evenodd;fill:#88EED2;}
	.st2{fill-rule:evenodd;clip-rule:evenodd;fill:#FFFFFF;}
</style>
<g>
	<g>
		<path class="st0" d="M192.59,536.88h1.68l0.72,53.66h-2.64c-2.16-26.11-21.08-46.24-41.2-46.24c-33.78,0-44.08,43.6-44.08,78.82
			c0,23.72,6.23,52.22,22.76,65.64c6.95,5.75,14.85,9.34,23.48,9.58c21.08,0.24,40.25-14.13,45.76-41.92l2.88,0.48l-10.06,47.67
			h-55.1c-48.63,0-76.18-32.34-76.18-79.3c0-50.31,30.19-89.36,79.3-88.4c26.59,0.48,28.03,5.75,44.08,9.58
			C187.08,547.18,190.92,545.27,192.59,536.88z"/>
		<path class="st0" d="M211.52,701.46c4.07,0,15.57-2.64,15.57-17.73V557.72c0-15.57-10.78-17.73-15.33-17.73v-3.11h74.74V540
			c-4.31-0.24-15.57,2.64-15.57,17.73v55.82h49.35v-55.82c0-14.61-11.74-17.73-15.57-17.73v-3.11h74.74V540
			c-5.75,0-15.09,3.83-15.09,17.73V678.7c0,16.53,7.67,22.76,15.09,22.76v3.11h-74.5v-3.11c4.07,0,15.33-2.88,15.33-17.73v-61.57
			h-49.35v61.57c0,15.81,11.02,17.73,15.57,17.73v3.11h-74.98V701.46z"/>
		<path class="st0" d="M403.4,563c0-21.8-16.77-22.76-16.77-22.76v-3.35h78.34V540c0,0-17.73,2.87-17.73,22.76v84.81
			c0,29.71,8.15,46.71,34.02,46.71c24.91,0,31.62-19.17,31.62-46.95v-84.57c0-23-17.25-22.76-17.25-22.76v-3.11H539V540
			c0,0-16.53,1.2-16.53,23v82.41c0,41.2-18.69,59.17-50.79,59.17c-37.13,0-68.28-11.5-68.28-58.93V563z"/>
		<path class="st0" d="M543.79,701.46c0,0,15.09-0.72,15.09-17.73V558.2c0-17.25-15.09-17.73-15.09-17.73v-3.59h67.56
			c11.5,0,21.56,0.48,29.71,2.64c23.24,6.95,34.74,23.24,34.74,45.52c0,32.34-19.64,53.42-51.75,53.42
			c-5.99,0-12.94-0.72-21.08-2.64v48.39c0,16.05,16.05,17.73,16.05,17.73v2.64h-75.22V701.46z M602.96,627.68
			c2.16,1.44,6.95,2.4,10.06,2.4c15.57,0,17.97-19.17,17.97-38.81c0-30.42-6.47-47.67-19.64-47.67c-2.16,0-4.79,0.48-8.38,1.68
			V627.68z"/>
		<path class="st0" d="M682.97,701.46c0,0,15.09-0.72,15.09-17.73V558.2c0-17.25-15.09-17.73-15.09-17.73v-3.59h67.56
			c11.5,0,21.56,0.48,29.71,2.64c23.24,6.95,34.74,23.24,34.74,45.52c0,32.34-19.64,53.42-51.75,53.42
			c-5.99,0-12.94-0.72-21.08-2.64v48.39c0,16.05,16.05,17.73,16.05,17.73v2.64h-75.22V701.46z M742.14,627.68
			c2.16,1.44,6.95,2.4,10.06,2.4c15.57,0,17.97-19.17,17.97-38.81c0-30.42-6.47-47.67-19.64-47.67c-2.16,0-4.79,0.48-8.38,1.68
			V627.68z"/>
		<path class="st0" d="M837.97,571.14c-6.95-12.94-17.01-31.38-27.79-31.38v-2.88h82.65v2.88c-10.3,1.2-13.65,10.06-1.44,34.26
			l23,46l26.59-49.35c11.02-20.36,13.66-29.95,0.72-31.14v-2.64h35.93v2.64c-8.86,0-18.45,16.29-25.15,28.99l-26.83,50.31
			c-5.99,12.94-10.3,22.04-10.54,38.57l-0.24,19.17c-0.24,24.67,13.18,25.15,13.18,25.15v2.88h-68.28v-3.11
			c0,0,13.42,0.24,14.61-20.6c0,0,0.48-10.54,0.24-24.91c-0.48-15.09-3.11-23.48-9.82-35.69L837.97,571.14z"/>
	</g>
	<g>
		<path class="st0" d="M538.79,932.29v-0.44c-3.1-3.99-4.43-8.42-4.43-14.18c0-21.71,24.81-57.6,92.16-110.32l4.87-3.99l-24.37-5.76
			c-16.39-3.99-33.23-7.98-48.29-11.96c-46.97-12.85-66.02-36.33-66.02-63.8c0-6.2,0.89-12.41,2.66-18.61
			c11.08-39.43,53.17-83.74,101.46-116.08c40.76-27.47,85.51-46.08,118.74-46.08c6.2,0,11.52,0.44,16.84,1.77l4.87,1.33
			c18.17,6.2,29.24,21.27,29.24,48.74c0,10.19-1.33,22.15-4.87,35.89c0,0.89-0.89,1.77-1.77,2.22c-0.89,0-1.33,0-2.22-0.44
			c-0.44-0.44-0.89-0.89-0.89-1.77v-0.89c0-0.89,0.44-2.22,1.33-3.99c0.44-0.44,0.89-0.44,1.33-0.44
			c2.22-10.19,3.54-20.38,3.54-29.69c0-27.03-10.63-47.85-43.86-47.85h-4.43c-49.18,3.1-121.84,44.75-168.37,93.04
			c-15.06,15.95-27.91,32.79-35.45,49.18c-6.2,12.41-9.3,23.93-9.3,35.45c0,3.54,0.44,6.65,0.89,10.19
			c4.43,20.82,23.04,38.99,62.03,49.62l70.89,17.28c20.38-15.06,42.09-26.58,64.69-35.45c26.14-10.19,54.05-15.95,81.97-17.72
			c1.33,0,2.22,0.44,2.22,1.77c0,0.89-0.89,1.77-1.77,1.77c-27.91,1.77-54.94,7.98-81.08,17.72c-21.71,8.42-42.09,19.05-61.59,32.79
			c42.98,11.08,80.2,23.04,89.5,42.53c2.66,5.76,3.99,11.08,3.99,16.84c0,25.25-26.14,47.85-59.81,63.36
			c-24.81,11.52-53.61,19.5-78.87,21.71l-11.52,0.44C563.16,946.47,546.76,942.48,538.79,932.29z M627.85,934.51
			c19.05-4.43,38.1-11.96,54.05-20.82c16.39-9.3,29.69-19.94,37.22-31.9c4.43-6.65,6.65-13.73,6.65-21.27
			c0-4.87-0.89-10.19-3.54-15.51c-3.99-8.42-14.62-15.95-29.69-22.15c-14.62-6.65-33.67-12.41-53.61-17.72l-2.66-0.44l-7.53,5.32
			c-66.46,52.73-91.27,86.84-91.27,107.22c0,4.87,1.33,9.3,3.99,12.41c7.53,7.98,22.15,11.52,39.43,11.52
			C595.06,941.16,611.45,938.5,627.85,934.51z"/>
		<path class="st0" d="M781.15,809.56c-0.89-6.65-1.33-14.62-1.33-23.93c0-34.56,6.65-84.18,14.62-134.25
			c-23.04,0.89-45.64,1.77-69.56,1.77h-0.44c-0.89,0-1.77-0.89-2.22-1.33v-0.89c0-0.89,0.89-1.77,1.77-2.66s2.22-1.33,3.54-1.33
			h1.77c2.22,0,3.99,0.44,4.87,2.66c20.82-0.44,40.32-0.89,60.7-1.77l4.43-27.03l-0.44-2.22c0-1.33,0.89-2.66,1.33-3.1
			c0.44-0.89,1.33-1.33,2.22-1.33s1.77,0,2.66,0.89c0.89,0.44,1.33,1.33,1.33,2.66l-4.87,29.69h0.44
			c27.47-1.33,55.83-2.22,89.5-2.22h15.95c0.89,0,1.77,0.89,1.77,1.77s-0.89,1.77-1.77,1.77h-12.85c-38.99,0-64.69,2.66-93.93,2.66
			c-6.65,42.53-12.41,85.51-13.74,118.74v12.41c0,21.71,2.22,37.22,8.42,42.98c2.22,1.77,4.43,2.66,6.65,2.66
			c5.76,0,11.96-5.32,15.95-9.3c19.94-17.72,43.42-54.5,53.61-70.01c0.44-0.44,0.89-0.89,1.77-0.89h0.44
			c0.44,0.44,0.89,0.89,0.89,1.77l-0.44,0.89c-38.1,60.26-62.03,84.18-76.65,84.18C788.68,834.82,783.81,825.51,781.15,809.56z"/>
		<path class="st0" d="M870.64,767.92c0-6.65-1.77-10.63-1.77-10.63c0-10.63,9.75-19.94,16.84-20.38c5.32,0,7.53,2.66,7.98,8.86
			c0,5.32-0.89,14.18-3.54,23.48c15.51-1.33,37.22-11.52,48.29-21.27h0.44c1.33,0,1.77,0.44,1.77,1.77v0.89
			c-11.52,9.75-34.12,22.15-51.84,22.15c-3.54,10.19-6.65,15.51-11.08,15.51C871.53,788.3,871.53,780.32,870.64,767.92z
			 M889.7,747.98c0-4.43,0-7.53-3.54-7.53c-0.89,0-2.66,0.44-2.66,1.33c0.89-0.44,1.77-0.44,2.66-0.44c0.89,0,1.77,0.89,1.77,2.22
			c0,1.33-0.44,1.33-1.77,1.33c-5.76,0-8.42,10.63-8.42,21.27c2.22,1.77,5.32,2.66,8.86,3.1
			C888.37,763.48,889.7,753.74,889.7,747.98z M885.27,772.79c-2.66-0.44-5.32-0.89-7.53-2.22c0,6.2,1.33,11.52,2.22,11.96
			C880.84,782.54,883.05,778.99,885.27,772.79z"/>
		<path class="st0" d="M936.22,786.97c0-10.63,0.89-32.79,1.33-43.42c0-3.1,0.89-3.54,1.77-3.54h0.89c1.77,0,3.1,2.22,3.1,4.87
			c0,0.89,0,1.77-0.89,2.66c-0.44,5.32-1.33,11.96-1.33,18.17c3.99-12.85,11.08-26.14,23.93-26.14c1.77,0,6.2,0,6.2,2.22
			c0,1.33-0.44,1.77-1.33,1.77l-4.87-0.44c-16.84,0-23.04,30.57-24.37,42.09c-0.44,3.1-1.77,3.99-2.66,3.99
			S936.22,788.3,936.22,786.97z"/>
		<path class="st0" d="M965.46,775.89c0-8.86,17.28-33.23,23.93-35l1.77-0.44c2.66,0,4.43,1.77,4.43,4.43
			c0,8.42-6.65,15.06-18.17,17.72c-3.99,6.2-4.87,9.3-4.87,12.85c0,3.1,1.33,3.54,2.66,3.54c12.85,0,33.67-11.08,51.4-30.13
			c0.44-0.44,0.44-0.89,1.77-0.89c0.89,0,1.77,0.89,1.77,2.66l-0.44,0.89c-15.95,15.95-34.56,28.36-48.29,31.46
			c-2.22,0.44-4.87,0.89-7.09,0.89C967.67,783.87,965.46,781.21,965.46,775.89z M991.16,747.98c-3.54,0-7.09,4.87-9.75,8.42
			l-1.33,1.77C986.73,755.07,991.16,750.64,991.16,747.98z"/>
	</g>
	<circle class="st1" cx="519.29" cy="286.72" r="202.27"/>
	<path class="st2" d="M360.89,391.08c-0.62-1.89,0.76-5.5,3.68-9.63c2.77-3.91,10.05-10.13,15-12.79c5.61-3.02,5.18-2.6,7.07-6.9
		c3.9-8.87,8.68-16.47,16.55-26.29c10.44-13.04,18.16-19.7,32.2-27.81c3.52-2.03,22.36-11.82,37.03-19.23
		c4.64-2.35,7.89-4.16,8.71-4.87c0.98-0.84,1.52-1.12,2.16-1.07c1.06,0.08,8.21-3.66,17.64-9.21c8.5-5.01,11.75-6.68,21.22-10.94
		c7.95-3.57,11.28-5.22,22.31-11.04c3.67-1.94,8.6-4.53,10.95-5.75c5.96-3.11,11.33-6.44,16.83-10.43
		c19.54-14.17,25.89-18,50.49-30.45c5.98-3.03,15.38-7.89,20.89-10.8c15.42-8.16,21.08-10.61,29.23-12.67
		c3.33-0.84,4.31-0.69,4.84,0.77c0.32,0.89,0.1,1.58-0.93,2.86c-0.54,0.67-0.8,1.65-0.96,3.68c-0.6,7.58-6.71,16.81-45.23,68.37
		c-26.44,35.39-29.77,39.05-46.63,51.31c-2.37,1.73-7.54,5.55-11.48,8.49c-15.57,11.62-17.23,12.63-32.03,19.41
		c-12.85,5.88-17.93,8.48-30.39,15.52c-19.51,11.02-26.66,14.12-41.66,18.11c-16.25,4.32-24.2,5.17-36.41,3.91
		c-2.96-0.31-6.63-0.6-8.15-0.66c-1.53-0.05-5.17-0.39-8.1-0.75l-5.32-0.66l-4.75,1.21c-6.48,1.65-10.07,2.06-13.89,1.57
		c-1.76-0.22-3.55-0.36-3.98-0.3c-0.43,0.06-3.98,1.91-7.88,4.11c-6.96,3.92-7.15,4.06-10.31,6.97c-2.36,2.18-3.64,3.59-4.81,5.3
		C362.78,393.34,361.7,393.52,360.89,391.08L360.89,391.08L360.89,391.08z M395.47,360.76c3.3-1.56,7.95-3.61,10.34-4.54
		c2.39-0.93,5.35-2.1,6.58-2.59l2.24-0.89l0.38-3.99c0.63-6.65,2.22-12.83,5.43-21.08l1.67-4.29l-3.79,3.5
		c-6.15,5.68-13,13.21-18.76,20.64c-4.63,5.97-11.02,16.01-10.23,16.07L395.47,360.76L395.47,360.76z M405.3,366.35
		c3.52-0.88,4.27-0.94,7.55-0.59c7.72,0.82,26.68,1.95,30.03,1.79c3.58-0.18,4.41-0.38,3.46-0.85c-4.58-2.26-9.94-6.28-12.77-9.59
		l-2.27-2.65l-3.75,1.69c-2.06,0.93-8.78,3.74-14.92,6.24c-10.22,4.17-11.94,4.91-11.42,4.93
		C401.31,367.33,403.15,366.89,405.3,366.35L405.3,366.35L405.3,366.35z M425.09,348.35c13.98-6.22,21.82-9.25,31.6-12.23
		c2.76-0.84,4.52-1.53,4.44-1.73c-0.24-0.57-0.7-6.17-0.64-7.69c0.3-7.32,4.02-17.52,10.93-30l0.81-1.46l-13.66,6.93
		c-20.3,10.29-25.85,13.33-28.64,15.67c-1.44,1.21-3.73,5.08-5.45,9.24c-3.82,9.18-7.9,24.62-6.43,24.3
		C418.31,351.31,421.48,349.95,425.09,348.35L425.09,348.35z M441.19,360.32c5.81,4.42,7.73,5.76,8.63,6.04
		c0.95,0.3,8.73-1.25,15.06-3c5.56-1.53,6.12-1.73,5.42-1.86c-4.64-0.89-8.24-2.11-11.4-3.85c-2.99-1.65-9.06-6.3-10.72-8.21
		c-1.02-1.17-1.36-1.4-1.79-1.22c-0.29,0.13-2.88,1.16-5.77,2.3c-2.88,1.14-5.67,2.31-6.2,2.6l-0.96,0.52l1.75,1.74
		C436.19,356.33,438.85,358.53,441.19,360.32L441.19,360.32z M454.92,351.73c12.41,7.95,20.23,9.04,30.86,4.29
		c5.83-2.61,11.33-5.55,21.45-11.46c11.33-6.63,18.94-10.62,28.25-14.81c2.42-1.09,4.35-2.03,4.29-2.09
		c-0.05-0.06-1.92-0.29-4.16-0.5c-5.08-0.48-7.76-1.15-14.84-3.71l-5.63-2.03l-2.31,0.68c-8.18,2.4-15.79,5.76-23.94,10.58
		c-8.89,5.25-12.48,6.79-22.2,9.49c-6.15,1.71-11.04,3.14-15.3,4.49l-2.56,0.81l0.91,0.77
		C450.25,348.65,452.58,350.23,454.92,351.73L454.92,351.73z M467.54,333.1c2.2-0.61,5.4-1.69,7.13-2.4l3.13-1.28l0.37-4.6
		c0.44-5.44,0.91-7.12,3.79-13.72c4.9-11.21,9.1-18.19,16.59-27.53c0.98-1.23,1.9-2.43,2.04-2.66c0.14-0.23-2.17,0.87-5.13,2.44
		c-2.96,1.58-8.53,4.46-12.38,6.4l-7,3.53l-3.14,6.27c-4.51,9-7.22,16.13-8.72,22.92c-0.74,3.35-1.37,10.94-0.95,11.43
		C463.42,334.07,465.28,333.73,467.54,333.1L467.54,333.1z M485.13,325.21c9.08-5.61,14.71-7.97,28.99-12.16
		c4.17-1.22,8.61-2.62,9.85-3.1c3.97-1.54,13.42-6.46,21.87-11.4c4.63-2.7,4.94-2.93,4.88-3.54c-0.3-2.97-0.28-4.04,0.13-6.92
		c0.63-4.46,1.61-7.78,4.05-13.73c3.21-7.83,11.85-26.4,12.58-27.03c0.75-0.65-0.3-0.52-1.37,0.17c-2.26,1.45-7.49,4.3-16.8,9.15
		c-12.68,6.6-15.46,7.94-25.29,12.13c-8.54,3.65-16.03,7.25-17.25,8.31c-1.36,1.17-8.98,12-13.12,18.63c-3,4.81-4.56,7.86-7.74,15.2
		c-3.3,7.61-3.74,8.85-4.84,13.59C480.15,328.46,479.92,328.43,485.13,325.21L485.13,325.21z M525.06,321.95
		c5.1,1.68,6.81,2.03,13.95,2.85c6.76,0.78,6.62,0.81,12.62-2.58c4.31-2.43,19.34-12.69,19.45-13.27c0.01-0.06-0.65,0.14-1.47,0.45
		c-5.84,2.18-13.44,4.19-18.1,4.8c-4.36,0.57-6.2,0.63-12.97,0.43c-3.09-0.09-5.77-0.04-5.95,0.12c-0.67,0.58-5.68,2.74-9.12,3.93
		c-4.11,1.42-4.15,1.45-3.09,1.76C520.82,320.57,522.93,321.25,525.06,321.95L525.06,321.95z M542.38,312.49
		c10.05-0.25,17.62-1.83,29.4-6.15c7-2.57,8.3-3.34,17.48-10.39c10.39-7.98,15.82-14.11,36.74-41.49
		c23.65-30.96,37.92-50.13,41.64-55.96c2.47-3.87,4.87-8.43,4.45-8.46c-0.11-0.01-2.21,2.03-4.68,4.52c-2.47,2.49-6.75,6.77-9.5,9.5
		c-6.02,5.96-9.73,9.83-18.95,19.7c-3.84,4.11-7.85,8.41-8.91,9.55c-5.66,6.05-27.1,28.45-29.88,31.21
		c-19.91,19.78-36.59,32.85-56.06,43.94c-3.8,2.16-6.96,3.98-7.02,4.03C536.93,312.64,536.53,312.64,542.38,312.49L542.38,312.49z
		 M553.97,293.49c3.36-2.24,11.63-8.14,14.41-10.3l3.13-2.42l0.5-2.71c0.74-4.05,4.05-15.62,5.41-18.89
		c3.32-8.02,9.34-19.46,13.98-26.54c3.11-4.75,3.22-4.94,2.92-4.96c-0.36-0.02-7.77,5.19-13.06,9.18c-2.98,2.25-6.22,4.66-7.2,5.37
		c-1.57,1.14-1.93,1.57-3.07,3.63c-2.62,4.76-13.5,30.15-15.28,35.62c-1.38,4.26-3.4,12.37-3.16,12.65
		C552.65,294.23,553.29,293.95,553.97,293.49L553.97,293.49z M584.77,269.07c4.91-4.38,10.75-9.84,12.99-12.13
		c8.17-8.38,23.95-24.72,32.84-34.01c14.26-14.9,19.94-20.49,28.51-28.02c2.13-1.87,4.88-4.4,6.11-5.61l2.23-2.2l-2.56,1.11
		c-4.69,2.03-9.66,4.67-22.8,12.14c-7.17,4.08-16.83,9.48-21.46,12.01c-9.5,5.18-18,10.03-19.94,11.37
		c-2.64,1.81-12.71,20.05-18.4,33.28c-1.92,4.47-6.85,19.52-6.53,19.92C575.8,276.99,579.84,273.46,584.77,269.07L584.77,269.07z"/>
</g>
</svg>
